<?xml version="1.0" encoding="UTF-8" standalone="no"?>
<!DOCTYPE svg PUBLIC "-//W3C//DTD SVG 1.1//EN" "http://www.w3.org/Graphics/SVG/1.1/DTD/svg11.dtd">
<svg width="100%" height="100%" viewBox="0 0 3200 1221" version="1.1" xmlns="http://www.w3.org/2000/svg" xmlns:xlink="http://www.w3.org/1999/xlink" xml:space="preserve" xmlns:serif="http://www.serif.com/" style="fill-rule:evenodd;clip-rule:evenodd;stroke-linejoin:round;stroke-miterlimit:2;">
    <g id="Layer-1" serif:id="Layer 1" transform="matrix(1,0,0,1,0,129.274)">
        <g id="magic">
            <path d="M513.029,757.115C524.238,820.631 551.238,869.069 607.713,866.14L607.713,869.81C539.15,890.36 471.508,853.29 452.758,757.165L434.588,650.24L365.617,770.152C365.617,770.152 351.958,792.881 351.463,810.719L348,810.719L256.883,637.315L238.875,784.248C237.858,792.506 245.713,799.969 253.183,799.91L258.9,799.91L258.9,803.381L182.167,803.381L182.167,799.71L188.025,799.71C200.717,799.71 211.883,791.831 214.567,778.256L239.496,603.477C220.929,570.323 187.217,522.073 147.008,525.798L146.275,522.131C213.292,493.785 264.183,539.594 291.642,586.885L364.896,724.548L471.267,541.465L474.621,541.465L513.029,757.115Z" style="fill:rgb(35,31,32);fill-rule:nonzero;"/>
            <path d="M686.572,715.888L650.676,625.775L613.072,715.887L686.572,715.887L686.572,715.888ZM775.922,778.422C783.864,793.434 796.426,799.701 807.239,799.701L810.31,799.701L810.31,803.372L693.389,803.372L693.389,799.734L696.614,799.734C706.089,799.734 716.397,791.384 710.797,776.697L692.73,731.351L606.618,731.351L587.843,776.697C581.814,791.384 592.401,799.734 601.876,799.734L605.105,799.734L605.105,803.372L526.418,803.372L526.418,799.701L529.718,799.701C540.151,799.701 552.805,793.605 560.597,779.03L645.455,587.201C648.076,581.618 662.614,549.809 663.51,539.13L666.814,539.13L775.922,778.422Z" style="fill:rgb(35,31,32);fill-rule:nonzero;"/>
            <path d="M1082.82,683.962C1070.95,683.962 1064.28,689.95 1064.54,700.604L1064.54,761.25C1047.27,783.529 1001.71,808.516 942.928,808.516C859.611,808.516 804.141,757.116 804.141,674.5C804.141,592.654 858.495,541.366 945.066,541.366C985.428,541.366 1024.71,550.262 1046.27,561.241L1046.99,624.212L1043.94,624.212C1030.12,574.35 995.311,556.829 956.161,556.812C896.136,556.812 863.974,602.141 863.974,676.72C863.974,747.591 893.686,792.979 947.728,793.075C974.766,793.062 1001.29,780 1009.94,756.791L1009.94,700.687C1010,689.966 1002.9,683.945 991.057,683.962L985.27,683.962L985.27,680.291L1088.35,680.291L1088.35,683.962L1082.82,683.962Z" style="fill:rgb(35,31,32);fill-rule:nonzero;"/>
            <path d="M1212.1,803.371L1100.62,803.371L1100.67,799.7L1105.32,799.7C1118.16,799.7 1128.58,789.405 1128.83,776.63L1128.83,573.059C1128.51,560.338 1118.12,550.134 1105.33,550.134L1100.68,550.134L1100.62,546.463L1212.1,546.463L1212.04,550.134L1207.4,550.134C1194.63,550.134 1184.25,560.296 1183.9,572.975L1183.9,776.63C1184.13,789.405 1194.55,799.7 1207.4,799.7L1212.04,799.7L1212.1,803.371Z" style="fill:rgb(35,31,32);fill-rule:nonzero;"/>
            <path d="M1483.76,696.283L1487.31,759.45C1470.87,786.6 1439.6,808.529 1384.18,808.529C1294.07,808.166 1235.3,758.358 1235.3,674.587C1235.3,592.5 1292.01,541.375 1385.22,541.375C1424.31,541.375 1455.67,550.458 1476.47,561.258L1477.19,624.22L1474.14,624.22C1460.77,576.037 1429.26,556.845 1388.91,556.82C1330.69,556.82 1295.13,601.662 1295.13,673.758C1295.13,746.404 1329.53,791.612 1384.18,793.075C1440.64,793.012 1469.27,768.425 1480.7,696.275L1483.76,696.283Z" style="fill:rgb(35,31,32);fill-rule:nonzero;"/>
        </g>
        <g id="voodoo">
            <path d="M1824.16,547.61C1838.68,513.543 1874.51,448.726 1951.51,456.08L1951.51,459.751C1891.19,463.414 1864.91,518.493 1851.6,547.61L1753.3,762.655C1750.68,768.239 1736.14,800.051 1735.25,810.714L1731.95,810.714L1620.74,571.185C1612.79,556.318 1600.27,550.147 1589.46,550.147L1586.52,550.147L1586.52,546.464L1703.38,546.464L1703.38,550.118L1700.16,550.118C1690.68,550.118 1680.86,558.426 1686.05,573.105L1748.21,724.855L1824.16,547.61Z" style="fill:rgb(35,31,32);fill-rule:nonzero;"/>
            <path d="M2099.93,674.937C2099.93,602.054 2066.08,556.791 2012.27,556.791C1958.47,556.791 1924.61,602.054 1924.61,674.937C1924.61,747.82 1958.47,793.07 2012.27,793.07C2066.08,793.07 2099.93,747.82 2099.93,674.937M2160.26,674.937C2160.26,757.4 2102.48,808.516 2012.27,808.516C1922.06,808.516 1864.29,757.4 1864.29,674.937C1864.29,592.466 1922.06,541.35 2012.27,541.35C2102.48,541.35 2160.26,592.466 2160.26,674.937" style="fill:rgb(35,31,32);fill-rule:nonzero;"/>
            <path d="M2252.21,674.937C2252.21,602.054 2218.36,556.791 2164.55,556.791C2110.75,556.791 2076.89,602.054 2076.89,674.937C2076.89,747.82 2110.75,793.07 2164.55,793.07C2218.36,793.07 2252.21,747.82 2252.21,674.937M2312.53,674.937C2312.53,757.4 2254.76,808.516 2164.55,808.516C2074.34,808.516 2016.57,757.4 2016.57,674.937C2016.57,592.466 2074.34,541.35 2164.55,541.35C2254.76,541.35 2312.53,592.466 2312.53,674.937" style="fill:rgb(35,31,32);fill-rule:nonzero;"/>
            <path d="M2416.84,787.795L2462.24,787.795C2514.84,787.795 2547.57,744.616 2547.57,675.082C2547.57,605.332 2514.69,562.02 2462.24,562.02L2416.84,562.02L2416.84,787.795ZM2466.69,546.545C2553.39,546.545 2607.4,595.72 2607.4,675.074C2607.4,754.291 2553.39,803.395 2466.69,803.395L2333.55,803.395L2333.6,799.724L2338.25,799.724C2351.08,799.724 2361.49,789.453 2361.76,776.695L2361.76,571.137C2360.5,559.337 2350.52,550.141 2338.38,550.141L2333.74,550.141L2333.68,546.503L2466.69,546.545Z" style="fill:rgb(35,31,32);fill-rule:nonzero;"/>
            <path d="M2874.91,674.937C2874.91,602.054 2841.06,556.791 2787.25,556.791C2733.45,556.791 2699.59,602.054 2699.59,674.937C2699.59,747.82 2733.45,793.07 2787.25,793.07C2841.06,793.07 2874.91,747.82 2874.91,674.937M2935.24,674.937C2935.24,757.4 2877.46,808.516 2787.25,808.516C2697.04,808.516 2639.27,757.4 2639.27,674.937C2639.27,592.466 2697.04,541.35 2787.25,541.35C2877.46,541.35 2935.24,592.466 2935.24,674.937" style="fill:rgb(35,31,32);fill-rule:nonzero;"/>
            <path d="M3027.2,674.937C3027.2,602.054 2993.35,556.791 2939.54,556.791C2885.74,556.791 2851.88,602.054 2851.88,674.937C2851.88,747.82 2885.74,793.07 2939.54,793.07C2993.35,793.07 3027.2,747.82 3027.2,674.937M3087.53,674.937C3087.53,757.4 3029.75,808.516 2939.54,808.516C2849.33,808.516 2791.56,757.4 2791.56,674.937C2791.56,592.466 2849.33,541.35 2939.54,541.35C3029.75,541.35 3087.53,592.466 3087.53,674.937" style="fill:rgb(35,31,32);fill-rule:nonzero;"/>
        </g>
        <path id="pin" d="M923.465,279.169C903.891,336.534 849.027,378.005 784.159,378.376C702.501,378.851 635.947,314.03 635.488,233.613C635.034,153.201 700.826,87.626 782.472,87.155C863.114,86.694 929.013,149.914 931.086,228.941L2339.14,417.927L923.465,279.169ZM687.702,236.143C686.378,227.519 686.202,218.689 687.258,209.904C689.896,187.992 699.846,168.304 714.613,153.379C732.9,134.887 758.142,124.575 783.917,124.579C788.221,124.579 792.546,124.867 796.85,125.45C810.627,127.326 823.492,132.094 834.808,139.128C825.315,126.418 812.482,116.352 797.622,110.23C787.124,105.904 775.614,103.547 763.555,103.614L763.547,103.614C753.624,103.672 744.092,105.368 735.205,108.444C709.903,117.199 689.838,137.133 680.885,162.3C677.539,171.698 675.743,181.826 675.803,192.372C675.859,202.271 677.547,211.782 680.609,220.652C682.479,226.075 684.863,231.258 687.702,236.143Z"/>
    </g>
</svg>
