<?xml version="1.0" encoding="UTF-8" standalone="no"?>
<!DOCTYPE svg PUBLIC "-//W3C//DTD SVG 1.1//EN" "http://www.w3.org/Graphics/SVG/1.1/DTD/svg11.dtd">
<svg width="100%" height="100%" viewBox="0 0 431 84" version="1.1" xmlns="http://www.w3.org/2000/svg" xmlns:xlink="http://www.w3.org/1999/xlink" xml:space="preserve" xmlns:serif="http://www.serif.com/" style="fill-rule:evenodd;clip-rule:evenodd;stroke-linejoin:round;stroke-miterlimit:2;">
    <g transform="matrix(1,0,0,1,-33.6462,-188.188)">
        <g id="Pin" transform="matrix(-0.00605425,-1.05289,-1.05289,0.00605425,70.5713,187.633)">
            <path d="M-46.806,-33.777C-60.546,-29 -70.423,-15.775 -70.423,-0.207C-70.424,19.391 -54.775,35.275 -35.475,35.274C-16.176,35.272 -0.529,19.391 -0.528,-0.204C-0.529,-19.558 -15.793,-35.287 -34.762,-35.675L-82.061,-373.339L-46.806,-33.777ZM-36.154,22.746C-34.083,23.052 -31.963,23.082 -29.856,22.816C-24.601,22.153 -19.89,19.738 -16.328,16.173C-11.916,11.759 -9.475,5.687 -9.512,-0.499C-9.518,-1.532 -9.593,-2.57 -9.739,-3.602C-10.208,-6.906 -11.37,-9.987 -13.074,-12.693C-7.846,-8.836 -4.454,-2.633 -4.452,4.361C-4.455,16.056 -13.941,25.54 -25.633,25.54C-29.462,25.54 -33.054,24.524 -36.154,22.746Z"/>
        </g>
    </g>
</svg>
